<svg width="56" height="56" viewBox="0 0 56 56" fill="none" xmlns="http://www.w3.org/2000/svg">
<path fill-rule="evenodd" clip-rule="evenodd" d="M17.5448 4.66663H38.4548C45.5563 4.66663 51.3337 10.444 51.3334 17.5449V38.455C51.3334 45.5559 45.5563 51.3333 38.4548 51.3333H17.5448C10.4438 51.3333 4.66675 45.5562 4.66675 38.455V17.5449C4.66675 10.444 10.4438 4.66663 17.5448 4.66663ZM38.4551 47.1928C43.2733 47.1928 47.1932 43.2731 47.1932 38.455H47.1929V17.5449C47.1929 12.7271 43.273 8.80712 38.4548 8.80712H17.5448C12.7269 8.80712 8.80724 12.7271 8.80724 17.5449V38.455C8.80724 43.2731 12.7269 47.1931 17.5448 47.1928H38.4551ZM16.3334 28.0002C16.3334 21.567 21.567 16.3333 28.0001 16.3333C34.4332 16.3333 39.6667 21.567 39.6667 28.0002C39.6667 34.4332 34.4332 39.6666 28.0001 39.6666C21.567 39.6666 16.3334 34.4332 16.3334 28.0002ZM20.3506 28C20.3506 32.2178 23.7823 35.6491 28.0001 35.6491C32.2178 35.6491 35.6496 32.2178 35.6496 28C35.6496 23.7818 32.2181 20.3503 28.0001 20.3503C23.7821 20.3503 20.3506 23.7818 20.3506 28ZM38.5787 13.2982C39.1199 12.7546 39.8727 12.4444 40.639 12.4444C41.4079 12.4444 42.1609 12.7546 42.7019 13.2982C43.2454 13.8391 43.5556 14.5921 43.5556 15.3611C43.5556 16.1274 43.2454 16.8804 42.7019 17.4239C42.1583 17.9649 41.4079 18.2777 40.639 18.2777C39.8727 18.2777 39.1197 17.9649 38.5787 17.4239C38.0352 16.8804 37.7223 16.1276 37.7223 15.3611C37.7223 14.5921 38.0349 13.8391 38.5787 13.2982Z" fill="#FD5545"/>
</svg>
