<svg width="56" height="56" viewBox="0 0 56 56" fill="none" xmlns="http://www.w3.org/2000/svg">
<path fill-rule="evenodd" clip-rule="evenodd" d="M34.3233 32.6667H36.1667L47.81 44.3333L44.3333 47.81L32.6667 36.1667V34.3233L32.0367 33.67C29.3767 35.9567 25.9233 37.3333 22.1667 37.3333C13.79 37.3333 7 30.5433 7 22.1667C7 13.79 13.79 7 22.1667 7C30.5433 7 37.3333 13.79 37.3333 22.1667C37.3333 25.9233 35.9567 29.3767 33.67 32.0367L34.3233 32.6667ZM11.6667 22.1667C11.6667 27.9767 16.3567 32.6667 22.1667 32.6667C27.9767 32.6667 32.6667 27.9767 32.6667 22.1667C32.6667 16.3567 27.9767 11.6667 22.1667 11.6667C16.3567 11.6667 11.6667 16.3567 11.6667 22.1667Z" fill="#FD5545"/>
</svg>
